<svg width="120" height="120" viewBox="0 0 120 120" fill="none" xmlns="http://www.w3.org/2000/svg">
<path d="M60 110C100 90 115 65 115 40C114.997 33.5564 112.92 27.285 109.075 22.114C105.231 16.943 99.8236 13.1472 93.654 11.2884C87.4843 9.42966 80.8802 9.60676 74.819 11.7935C68.7578 13.9802 63.5618 18.0604 60 23.43C56.4382 18.0604 51.2422 13.9802 45.181 11.7935C39.1198 9.60676 32.5157 9.42966 26.346 11.2884C20.1764 13.1472 14.7691 16.943 10.9247 22.114C7.08021 27.285 5.00282 33.5564 5 40C5 65 20 90 60 110Z" fill="#E22626"/>
</svg>
