<svg width="75" height="100" viewBox="0 0 75 100" fill="none" xmlns="http://www.w3.org/2000/svg">
<path d="M75 91.11H0V100H75V91.11Z" fill="#EFA873"/>
<path d="M2.62103 93.4398H75V91.11H0V100H2.62103V93.4398Z" fill="#DD9564"/>
<path d="M67.4983 0V17.7776H0L67.4983 0Z" fill="#924B35"/>
<path d="M0 17.7776H11.1046L65.5671 3.43339V17.7776H67.4983V0L0 17.7776Z" fill="#7F3E2D"/>
<path d="M0 26.6676V17.7776H67.4983H74.9997V91.11H0V26.6676ZM59.4973 54.5983C59.4973 49.1417 54.5171 44.7126 48.3646 44.7126C42.8025 44.7126 39.7786 47.9228 37.0003 52.8644C34.2193 47.9228 31.681 44.7126 26.1217 44.7126C19.9802 44.7126 15.0003 49.1417 15.0003 54.5983C15.0003 64.4843 26.1217 70.115 37.2431 80.0005C48.3648 70.115 59.4973 64.4843 59.4973 54.5983Z" fill="#FFC592"/>
<path d="M3.44872 29.6694V20.7794H70.9471H75V17.7776H67.4983H0V26.6676V91.11H3.44872V29.6694Z" fill="#EFA873"/>
<path d="M48.3648 44.7126C54.5174 44.7126 59.4976 49.1417 59.4976 54.5983C59.4976 64.4843 48.3648 70.115 37.2434 80.0005C26.122 70.1148 15.0005 64.484 15.0005 54.5983C15.0005 49.1417 19.9805 44.7126 26.122 44.7126C31.6813 44.7126 34.2196 47.9228 37.0006 52.8644C39.7789 47.9228 42.8028 44.7126 48.3648 44.7126Z" fill="#F33F4D"/>
<path d="M19.6908 55.8245C19.6908 50.3679 24.6708 45.9388 30.8122 45.9388C30.9425 45.9388 31.0694 45.9422 31.1966 45.9459C29.8058 45.1491 28.1691 44.7126 26.1223 44.7126C19.9808 44.7126 15.0008 49.1417 15.0008 54.5983C15.0008 64.4843 26.1223 70.115 37.2437 80.0005C37.7836 79.5208 38.3233 79.0512 38.8618 78.5906C28.8531 70.2651 19.6908 64.7974 19.6908 55.8245Z" fill="#DD2C42"/>
<path d="M47.4819 27.8939H2.48306C1.72131 27.8939 1.10358 27.3448 1.10358 26.6676C1.10358 25.9905 1.72131 25.4414 2.48306 25.4414H47.4819C48.244 25.4414 48.8614 25.9905 48.8614 26.6676C48.8614 27.3448 48.2437 27.8939 47.4819 27.8939Z" fill="#EFA873"/>
<path d="M57.4832 27.8939H54.9836C54.2216 27.8939 53.6041 27.3448 53.6041 26.6676C53.6041 25.9905 54.2216 25.4414 54.9836 25.4414H57.4832C58.2453 25.4414 58.8627 25.9905 58.8627 26.6676C58.8627 27.3448 58.245 27.8939 57.4832 27.8939Z" fill="#EFA873"/>
</svg>
