<svg width="130" height="119" viewBox="0 0 130 119" fill="none" xmlns="http://www.w3.org/2000/svg">
<path d="M47.5203 111.869C46.8339 111.869 46.1948 111.435 45.9657 110.748C45.6796 109.889 46.1437 108.962 47.0024 108.676C53.3378 106.564 57.7021 102.851 59.9742 97.641C65.203 85.6506 57.9803 69.4894 57.9069 69.3274C57.5323 68.5034 57.8968 67.5316 58.7208 67.1573C59.5445 66.7827 60.5163 67.1471 60.8909 67.9708C61.2161 68.686 68.7845 85.6368 62.9788 98.9508C60.3196 105.049 55.293 109.367 48.0388 111.785C47.8667 111.842 47.692 111.869 47.5203 111.869Z" fill="#743629"/>
<path d="M5.93973 6.28134C9.22068 6.28134 11.8822 8.93954 11.8822 12.2205C11.8822 15.5018 9.22068 18.1596 5.93973 18.1596C2.65877 18.1596 0.000579834 15.5018 0.000579834 12.2205C0.000579834 8.93986 2.65877 6.28134 5.93973 6.28134Z" fill="#D30045"/>
<path d="M5.93972 6.28134C2.83314 6.28134 0.289009 8.66552 0.0267944 11.7039C1.07631 10.7685 2.45588 10.1949 3.97312 10.1949C7.25407 10.1949 9.91554 12.8531 9.91554 16.134C9.91554 16.3077 9.90407 16.4792 9.88965 16.649C11.1096 15.5614 11.8821 13.9832 11.8821 12.2202C11.8821 8.93986 9.22068 6.28134 5.93972 6.28134Z" fill="#BC0245"/>
<path d="M17.487 67.1055C21.158 70.7729 19.2274 76.8828 18.8832 84.5693C11.2004 84.9131 5.09407 86.8375 1.42635 83.1661C-0.602534 81.1405 -0.448483 77.696 1.7705 75.4803C3.77644 73.474 5.69716 73.3888 8.53563 74.2217C7.7031 71.3799 7.79159 69.4589 9.79753 67.4533C12.0165 65.231 15.4614 65.0766 17.487 67.1055Z" fill="#EF3E5C"/>
<path d="M17.487 67.1055C15.4614 65.077 12.0165 65.231 9.79755 67.4533C9.06007 68.1901 8.58383 68.9167 8.31538 69.6811C10.4878 68.1973 13.341 68.3028 15.1107 70.0754C18.3185 73.2806 17.249 78.3502 16.6987 84.7073C17.4119 84.6509 18.1399 84.603 18.8836 84.5696C19.2274 76.8828 21.158 70.7729 17.487 67.1055Z" fill="#D33356"/>
<path d="M49.9851 92.8716C50.4178 94.4184 50.5718 96.0507 50.4505 97.6895C48.7855 97.8137 47.1302 97.6538 45.5602 97.2044C43.5084 96.6213 41.6041 95.5426 40.0275 93.9625C38.4837 92.4223 37.4185 90.5671 36.8252 88.5677C36.3467 86.9584 36.173 85.2543 36.3008 83.5398C37.9888 83.4149 39.667 83.5821 41.2566 84.0442C43.2823 84.6345 45.1636 85.706 46.7238 87.2662C48.32 88.8631 49.405 90.7929 49.9851 92.8716Z" fill="#8EAA39"/>
<path d="M41.2567 87.5628C43.2823 88.1531 45.1637 89.2246 46.7238 90.7847C48.3201 92.3813 49.405 94.3115 49.9851 96.3902C50.1054 96.8206 50.2018 97.2572 50.2791 97.6987C50.3362 97.6947 50.3935 97.6934 50.4505 97.6898C50.5718 96.051 50.4178 94.4187 49.9851 92.872C49.405 90.7933 48.3201 88.8634 46.7238 87.2665C45.1637 85.7063 43.2823 84.6348 41.2567 84.0445C39.667 83.5824 37.9888 83.4152 36.3008 83.5401C36.2123 84.7243 36.2716 85.903 36.4719 87.0495C38.1022 86.9482 39.7207 87.1164 41.2567 87.5628Z" fill="#7D932E"/>
<path d="M88.4388 77.6003C88.567 79.2883 88.3998 80.9668 87.9377 82.5565C87.3477 84.5821 86.2759 86.4635 84.7157 88.0236C83.1195 89.6195 81.1889 90.7048 79.1106 91.2846C77.5605 91.7172 75.9279 91.8716 74.2891 91.75C74.1678 90.0856 74.3251 88.4301 74.7742 86.8597C75.3609 84.8079 76.4392 82.9042 78.0158 81.3273C79.5596 79.7832 81.4115 78.718 83.4109 78.125C85.0235 77.6465 86.7279 77.4731 88.4388 77.6003Z" fill="#8EAA39"/>
<path d="M75.4366 90.3013C76.0233 88.2495 77.1017 86.3458 78.6782 84.7689C80.222 83.2248 82.0739 82.1595 84.0733 81.5666C85.4299 81.1638 86.8514 80.9796 88.2867 81.0065C88.4729 79.892 88.5257 78.7485 88.4388 77.6C86.7279 77.4725 85.0235 77.6462 83.4108 78.1251C81.4115 78.718 79.5596 79.7832 78.0158 81.3273C76.4392 82.9042 75.3609 84.8079 74.7742 86.8597C74.3251 88.4301 74.1675 90.0856 74.2891 91.75C74.5618 91.7707 74.8338 91.7802 75.1059 91.7851C75.1894 91.2839 75.2973 90.7887 75.4366 90.3013Z" fill="#7D932E"/>
<path d="M126.761 61.9494C129.957 65.1451 130.177 70.0951 127.263 73.0083C121.985 78.2889 113.198 75.5157 102.146 75.0211C101.651 63.9684 98.8844 55.1876 104.161 49.9075C107.075 46.9934 112.028 47.2166 115.214 50.4025C118.101 53.2904 118.226 56.0532 117.03 60.1372C121.111 58.9405 123.874 59.065 126.761 61.9494Z" fill="#EF3E5C"/>
<path d="M106.948 53.2124C109.584 50.5755 113.886 50.5159 117.042 52.8876C116.635 52.0472 116.041 51.2294 115.214 50.4025C112.028 47.2166 107.076 46.9937 104.162 49.9075C98.8845 55.1876 101.651 63.9684 102.146 75.0211C103.024 75.0601 103.885 75.1152 104.733 75.1781C103.976 65.605 102.182 57.9808 106.948 53.2124Z" fill="#D33356"/>
<path d="M62.732 40.7038C63.7382 39.7956 64.7183 38.8683 65.6753 37.9211C65.813 37.7903 65.9474 37.6556 66.0782 37.5212C66.5174 37.082 66.9533 36.6362 67.3794 36.1901C67.54 36.0262 67.6977 35.8591 67.8547 35.6919C68.8183 34.6726 69.7524 33.6434 70.6607 32.6011C70.8672 32.3648 71.0704 32.1258 71.2736 31.8862C71.5126 31.6109 71.7453 31.3326 71.975 31.0573C73.5975 29.1202 75.1216 27.1631 76.5507 25.2165C76.7572 24.9379 76.9604 24.6593 77.1603 24.3807C77.7634 23.5481 78.3465 22.7189 78.9106 21.8962C79.1007 21.6209 79.2872 21.3452 79.4678 21.0735C80.0316 20.241 80.5756 19.4147 81.103 18.5985C81.6114 17.8089 82.103 17.0285 82.578 16.2583C82.5878 16.2451 82.5947 16.2353 82.6009 16.2222C82.9058 15.7273 83.204 15.2356 83.4957 14.7509C83.656 14.4821 83.8166 14.2163 83.9707 13.9511C84.1214 13.6987 84.2689 13.4496 84.4099 13.2005C84.9933 12.2074 85.5407 11.2408 86.0556 10.3096C86.0785 10.2706 86.1015 10.2313 86.1277 10.1949L83.7976 23.4498C83.3748 25.8425 83.4043 28.2939 83.8795 30.6738L86.131 41.9195C86.131 49.3008 83.1385 55.984 78.3006 60.8186C73.4628 65.6565 66.7799 68.6493 59.3983 68.6493C49.4702 68.6493 40.8073 63.2342 36.1956 55.1974C36.5791 55.1122 36.9626 55.0237 37.3428 54.9289C37.3461 54.9289 37.3493 54.9253 37.3526 54.9253C37.3657 54.9253 37.3821 54.9221 37.3952 54.9188C37.5263 54.8857 37.6542 54.8532 37.782 54.8168C37.8672 54.7942 37.9491 54.7742 38.0311 54.7516C38.349 54.673 38.667 54.5841 38.9816 54.4891C39.4241 54.3645 39.8666 54.2337 40.3025 54.0925C40.6303 53.9941 40.9548 53.886 41.276 53.7745C41.6464 53.6533 42.0102 53.5254 42.374 53.3878C42.9247 53.1878 43.472 52.9781 44.0161 52.7585C44.2914 52.6434 44.5668 52.5323 44.8421 52.414C45.1207 52.2963 45.396 52.175 45.6713 52.0534C45.8254 51.9879 45.9762 51.9191 46.1269 51.8502C46.1564 51.8371 46.1827 51.824 46.2122 51.8109C46.4449 51.7027 46.6743 51.5946 46.9038 51.4867C46.9955 51.4438 47.084 51.4012 47.1725 51.3586C47.438 51.2307 47.7035 51.0996 47.9657 50.9688C48.2181 50.8407 48.4705 50.7132 48.7229 50.5818C48.8933 50.4965 49.0605 50.4048 49.2309 50.3133C50.0798 49.8607 50.9156 49.389 51.7416 48.8941C51.9088 48.7954 52.0727 48.6971 52.2365 48.5958C52.561 48.3959 52.8888 48.1927 53.2133 47.9891C53.4493 47.8383 53.6853 47.6843 53.9213 47.5306C54.8095 46.9501 55.6847 46.3473 56.5434 45.721C56.6778 45.6259 56.8122 45.5276 56.9466 45.4292C57.2743 45.1867 57.6021 44.9409 57.9266 44.6918C58.2019 44.4853 58.474 44.2722 58.746 44.0592C58.7755 44.0362 58.805 44.013 58.8345 43.9903C59.2868 43.6328 59.7326 43.2725 60.1751 42.9084C60.2046 42.8825 60.2341 42.8596 60.2603 42.8363C60.5258 42.6167 60.7913 42.3938 61.0535 42.1709C61.3747 41.8956 61.6959 41.6203 62.0138 41.3384C62.2531 41.1286 62.4924 40.9192 62.7284 40.7028H62.732V40.7038Z" fill="#E42A53"/>
<path d="M40.195 56.4793C40.5785 56.3937 40.962 56.3056 41.3422 56.2105C41.3455 56.2105 41.3488 56.2072 41.352 56.2072C41.3652 56.2072 41.3815 56.204 41.3947 56.2003C41.5258 56.1676 41.6536 56.1351 41.7814 56.0987C41.8666 56.0758 41.9486 56.0561 42.0305 56.0332C42.3485 55.9545 42.6664 55.866 42.981 55.771C43.4235 55.6464 43.866 55.5153 44.302 55.3744C44.6297 55.276 44.9542 55.1679 45.2754 55.0564C45.6458 54.9352 46.0096 54.807 46.3734 54.6693C46.9241 54.4697 47.4715 54.2596 48.0156 54.04C48.2909 53.9253 48.5662 53.8142 48.8415 53.6959C49.1201 53.5779 49.3955 53.4566 49.6708 53.3353C49.8248 53.2698 49.9756 53.2009 50.1264 53.1321C50.1559 53.119 50.1821 53.1059 50.2116 53.0928C50.4443 52.9846 50.6738 52.8765 50.9032 52.7683C50.995 52.7257 51.0835 52.6831 51.172 52.6405C51.4375 52.5123 51.7029 52.3815 51.9652 52.2504C52.2175 52.1226 52.4699 51.9948 52.7223 51.8637C52.8927 51.7784 53.0599 51.6867 53.2303 51.5949C54.0793 51.1426 54.9151 50.6706 55.741 50.1756C55.9082 50.0773 56.0721 49.979 56.236 49.8774C56.5605 49.6778 56.8882 49.4746 57.2127 49.271C57.4487 49.1202 57.6847 48.9662 57.9207 48.8121C58.8089 48.232 59.6841 47.6292 60.5428 47.0029C60.6772 46.9078 60.8116 46.8095 60.946 46.7111C61.2738 46.4686 61.6015 46.2228 61.926 45.9737C62.2013 45.7668 62.4734 45.5541 62.7454 45.3408C62.7749 45.3181 62.8044 45.2949 62.8339 45.2719C63.2863 44.9146 63.732 44.5544 64.1745 44.1903C64.204 44.1641 64.2335 44.1411 64.2597 44.1182C64.5252 43.8986 64.7907 43.6754 65.0529 43.4528C65.3741 43.1775 65.6957 42.9022 66.0133 42.6203C66.2525 42.4105 66.4921 42.2007 66.7281 41.9844H66.7314C67.7377 41.0765 68.7177 40.1489 69.6748 39.202C69.8124 39.0709 69.9468 38.9362 70.0776 38.8018C70.5168 38.3626 70.9527 37.9171 71.3788 37.471C71.5394 37.3072 71.6971 37.14 71.8541 36.9725C72.8177 35.9535 73.7519 34.924 74.6601 33.8817C74.8666 33.6457 75.0698 33.4064 75.273 33.1671C75.512 32.8918 75.7447 32.6132 75.9745 32.3379C77.5969 30.4008 79.121 28.444 80.5501 26.4971C80.7566 26.2185 80.9598 25.9402 81.1597 25.6613C81.7628 24.8287 82.3459 23.9998 82.91 23.1768C83.1001 22.9015 83.2866 22.6261 83.4672 22.3541C83.7078 21.9988 83.9432 21.6451 84.1769 21.2924L86.128 10.1942C86.1018 10.2303 86.0792 10.2696 86.0559 10.3089C85.5413 11.2401 84.994 12.2067 84.4102 13.1999C84.2693 13.449 84.1218 13.6984 83.971 13.9504C83.817 14.2159 83.6563 14.4814 83.4961 14.7502C83.204 15.235 82.9058 15.7266 82.6013 16.2215C82.5947 16.2347 82.5882 16.2445 82.5783 16.2576C82.1034 17.0279 81.6117 17.8079 81.1034 18.5979C80.576 19.414 80.0316 20.2403 79.4681 21.0728C79.2875 21.3446 79.101 21.6202 78.9109 21.8955C78.3468 22.7182 77.7638 23.5475 77.1607 24.38C76.9607 24.6586 76.7575 24.9372 76.551 25.2158C75.1219 27.1624 73.5978 29.1195 71.9754 31.0566C71.7459 31.332 71.5132 31.6102 71.2739 31.8856C71.0707 32.1248 70.8675 32.3641 70.661 32.6004C69.7528 33.6427 68.819 34.6716 67.855 35.6913C67.698 35.8584 67.5403 36.0256 67.3797 36.1895C66.9536 36.6352 66.5177 37.0813 66.0785 37.5205C65.9477 37.6549 65.813 37.7893 65.6757 37.9204C64.7186 38.868 63.7386 39.7952 62.7323 40.7032H62.729C62.4931 40.9195 62.2538 41.1293 62.0145 41.3387C61.6966 41.6206 61.3754 41.8959 61.0542 42.1712C60.7919 42.3944 60.5264 42.617 60.261 42.8366C60.2347 42.8595 60.2052 42.8828 60.1757 42.9087C59.7333 43.2725 59.2875 43.6331 58.8352 43.9907C58.8057 44.0133 58.7762 44.0366 58.7467 44.0595C58.4746 44.2722 58.2026 44.4856 57.9273 44.6921C57.6028 44.9412 57.275 45.187 56.9472 45.4296C56.8128 45.5279 56.6785 45.6262 56.5441 45.7213C55.6853 46.3473 54.8102 46.9504 53.9219 47.5309C53.6859 47.6849 53.4499 47.8387 53.214 47.9894C52.8895 48.1927 52.5617 48.3959 52.2372 48.5961C52.0733 48.6977 51.9094 48.7957 51.7423 48.8944C50.9163 49.3893 50.0805 49.861 49.2316 50.3136C49.0611 50.4051 48.894 50.4972 48.7235 50.5821C48.4712 50.7132 48.2188 50.841 47.9664 50.9692C47.7042 51.1 47.4387 51.2314 47.1732 51.3589C47.0847 51.4015 46.9962 51.4441 46.9044 51.487C46.675 51.5949 46.4456 51.703 46.2128 51.8112C46.1833 51.8243 46.1571 51.8374 46.1276 51.8505C45.9768 51.9194 45.8261 51.9882 45.672 52.0538C45.3967 52.175 45.1214 52.2963 44.8428 52.4143C44.5674 52.5323 44.2921 52.6437 44.0168 52.7588C43.4727 52.9784 42.9253 53.1882 42.3747 53.3881C42.0109 53.5258 41.647 53.6536 41.2767 53.7749C40.9554 53.8863 40.631 53.9945 40.3032 54.0928C39.8673 54.2341 39.4248 54.3648 38.9823 54.4894C38.6676 54.5844 38.3497 54.6733 38.0318 54.7519C37.9498 54.7746 37.8679 54.7946 37.7827 54.8172C37.6548 54.8532 37.527 54.886 37.3959 54.9191C37.3828 54.9224 37.3664 54.9257 37.3533 54.9257C37.35 54.9257 37.3467 54.9293 37.3434 54.9293C36.9632 55.024 36.5797 55.1128 36.1963 55.1977C39.8283 61.5272 45.9732 66.2277 53.2693 67.9403C47.7425 65.6745 43.1413 61.6134 40.195 56.4793Z" fill="#C62650"/>
<path d="M38.6116 12.2205C38.6116 12.2205 55.7407 22.9287 62.7287 40.7035C62.4927 40.9198 62.2535 41.1296 62.0142 41.339C61.6963 41.6209 61.3751 41.8962 61.0538 42.1716C60.7916 42.3948 60.5261 42.6173 60.2606 42.8369C60.2344 42.8599 60.2049 42.8831 60.1754 42.909C59.7329 43.2729 59.2872 43.6334 58.8349 43.991C58.8054 44.0136 58.7759 44.0369 58.7464 44.0598C58.4776 44.2726 58.2023 44.4827 57.9269 44.6924C57.6024 44.9415 57.2747 45.1874 56.9469 45.4299C56.8125 45.5282 56.6782 45.6266 56.5438 45.7216C55.685 46.3476 54.8099 46.9507 53.9216 47.5312C53.6889 47.6853 53.4529 47.839 53.2136 47.9898C52.8892 48.193 52.5614 48.3962 52.2369 48.5965C52.073 48.6981 51.9058 48.7961 51.742 48.8947C50.916 49.3897 50.0802 49.8613 49.2313 50.314C49.0641 50.4054 48.8937 50.4942 48.7232 50.5824C48.4708 50.7135 48.2185 50.8413 47.9661 50.9695C47.7006 51.1036 47.4384 51.235 47.1729 51.3592C47.0844 51.4018 46.9959 51.4444 46.9041 51.4874C46.6747 51.5988 46.4452 51.707 46.2125 51.8115C46.183 51.8246 46.1568 51.8378 46.1273 51.8509C45.9765 51.9197 45.8225 51.9885 45.6717 52.0541C45.3964 52.1754 45.1211 52.2966 44.8425 52.4146C44.5704 52.5326 44.2918 52.6474 44.0165 52.7591C43.4724 52.9787 42.925 53.1885 42.3744 53.3884C42.0105 53.5228 41.6434 53.6506 41.2763 53.7752C40.9551 53.8866 40.6306 53.9915 40.3029 54.0931C39.8669 54.2344 39.4245 54.3652 38.982 54.4897C38.6673 54.5815 38.3494 54.6703 38.0314 54.7523C37.9495 54.7749 37.8676 54.7949 37.7823 54.8175C37.6414 54.8536 37.4972 54.8899 37.353 54.9257C37.3497 54.9257 37.3464 54.9293 37.3431 54.9293C36.6483 55.0764 35.937 54.7487 35.6092 54.1164C33.7508 50.4978 32.6921 46.404 32.6724 42.0611C32.6692 41.9697 32.679 41.8746 32.6921 41.7825L34.5768 30.4778C35.2815 26.2562 35.288 21.946 34.5964 17.7211L33.7049 12.2801C33.4394 10.6544 35.5306 9.76617 36.5172 11.0805L38.6116 12.2205Z" fill="#D30045"/>
<path d="M35.8426 46.2349C35.8393 46.1431 35.8492 46.0481 35.8623 45.956L37.7469 34.6516C38.4516 30.4299 38.4582 26.1198 37.7666 21.8949L36.8751 16.4536C36.6096 14.8279 38.7007 13.9396 39.6873 15.254L41.7817 16.3946C41.7817 16.3946 49.7606 21.3839 57.0488 30.2021C49.1339 18.7994 38.6119 12.2205 38.6119 12.2205L36.5175 11.0802C35.5309 9.76584 33.4397 10.6541 33.7052 12.2798L34.5968 17.7208C35.2883 21.9457 35.2818 26.2558 34.5771 30.4775L32.6924 41.7822C32.6793 41.874 32.6695 41.969 32.6728 42.0608C32.6924 46.4037 33.7511 50.4975 35.6096 54.1161C35.9367 54.747 36.645 55.0741 37.3379 54.9296C36.3834 52.2058 35.8564 49.2822 35.8426 46.2349Z" fill="#AF0249"/>
<path d="M87.0393 4.71494C88.5404 4.2954 89.6745 6.08173 88.6519 7.25842L86.2362 10.051C86.1969 10.0972 86.1612 10.146 86.1281 10.1952L86.1314 10.1755C86.1087 10.2214 86.0825 10.264 86.0563 10.3096C85.5417 11.2408 84.9943 12.2074 84.4106 13.2005C84.2667 13.4496 84.1189 13.699 83.9714 13.9511C83.8173 14.2166 83.6567 14.4821 83.4964 14.7509C83.2044 15.2356 82.9061 15.7243 82.6016 16.2222C82.5951 16.2353 82.5885 16.2451 82.5787 16.2583C82.1037 17.0252 81.6121 17.8053 81.1037 18.5985C80.5763 19.4147 80.0319 20.241 79.4685 21.0735C79.2846 21.3452 79.0978 21.6209 78.9113 21.8962C78.3472 22.7189 77.7641 23.5481 77.161 24.3807C76.9611 24.6593 76.7579 24.9379 76.5514 25.2165C75.1223 27.1631 73.5982 29.1202 71.9757 31.0573C71.743 31.3359 71.5103 31.6109 71.2743 31.8862C71.0711 32.1255 70.8679 32.3615 70.6614 32.6011C69.7531 33.6434 68.8193 34.6722 67.8554 35.6919C67.6984 35.8591 67.5407 36.023 67.3801 36.1901C66.954 36.6359 66.5181 37.082 66.0789 37.5212C65.9445 37.6556 65.8101 37.79 65.676 37.9211C64.719 38.8686 63.7389 39.7959 62.7327 40.7038H62.7294C55.7414 22.929 38.6123 12.2208 38.6123 12.2208L32.9878 6.37017C32.7813 6.09812 32.6698 5.76707 32.6698 5.4262C32.6698 4.37078 33.6859 3.61659 34.6987 3.91814L55.7316 10.2277C60.022 11.5161 64.6141 11.3653 68.8095 9.80484C68.8455 9.79173 68.8783 9.78223 68.9144 9.77207L87.0393 4.71494Z" fill="#EF3E5C"/>
<path d="M115.144 0C118.425 0 121.087 2.6582 121.087 5.93915C121.087 9.22043 118.425 11.8783 115.144 11.8783C111.863 11.8783 109.205 9.22043 109.205 5.93915C109.205 2.65852 111.863 0 115.144 0Z" fill="#D30045"/>
<path d="M115.144 0C112.037 0 109.494 2.38418 109.231 5.42259C110.281 4.48714 111.66 3.91355 113.178 3.91355C116.459 3.91355 119.12 6.57174 119.12 9.8527C119.12 10.0264 119.109 10.1978 119.094 10.3676C120.314 9.28009 121.087 7.70188 121.087 5.93882C121.087 2.65852 118.425 0 115.144 0Z" fill="#BC0245"/>
<path d="M79.1873 107.054C82.4682 107.054 85.13 109.712 85.13 112.993C85.13 116.275 82.4682 118.932 79.1873 118.932C75.9063 118.932 73.2484 116.275 73.2484 112.993C73.2484 109.712 75.9063 107.054 79.1873 107.054Z" fill="#D30045"/>
<path d="M79.1872 107.054C76.0807 107.054 73.5365 109.438 73.2743 112.476C74.3238 111.541 75.7034 110.967 77.2206 110.967C80.5016 110.967 83.1634 113.626 83.1634 116.907C83.1634 117.08 83.1519 117.252 83.1372 117.421C84.3574 116.334 85.13 114.756 85.13 112.993C85.13 109.712 82.4682 107.054 79.1872 107.054Z" fill="#BC0245"/>
</svg>
