<svg width="23" height="69" viewBox="0 0 23 69" fill="none" xmlns="http://www.w3.org/2000/svg">
<path d="M19.3213 48.9155C22.0314 46.4764 21.1281 40.7839 21.1281 40.7839C21.1281 40.7839 14.8031 39.9708 12.0929 42.41C10.097 44.2063 10.097 47.1192 12.0929 48.9155C14.0901 50.7118 17.3254 50.7118 19.3213 48.9155Z" fill="#18C29C"/>
<path d="M8.94439 17.2504H3.83328V14.9504C3.83328 8.59899 9.55389 3.45044 16.6111 3.45044H19.1666V8.05044C19.1666 13.1311 14.5896 17.2504 8.94439 17.2504Z" fill="#FF7BAC"/>
<path d="M3.83328 1.14941V14.9494H15.3333V10.3494C15.3333 5.26871 10.7563 1.14941 5.11106 1.14941H3.83328Z" fill="#FD58A1"/>
<path d="M11.5 21.8503H6.38885V19.5503C6.38885 13.1988 12.1095 8.05029 19.1666 8.05029H21.7222V12.6503C21.7222 17.731 17.1452 21.8503 11.5 21.8503Z" fill="#FD58A1"/>
<path d="M14.0555 21.8499H8.94443V67.8499H14.0555V21.8499Z" fill="#18A596"/>
<path d="M11.5 23.0004C11.5 21.7297 12.6436 20.7004 14.0556 20.7004C19.1667 20.7004 20.4444 26.4504 20.4444 26.4504C20.4444 26.4504 16.6111 25.3004 14.0556 25.3004C12.6436 25.3004 11.5 24.2712 11.5 23.0004Z" fill="#18C29C"/>
<path d="M8.94438 21.8493C4.70982 21.8493 1.27771 18.7604 1.27771 14.9493V5.74927H6.38882C12.034 5.74927 16.611 9.86857 16.611 14.9493C16.611 18.7604 13.1789 21.8493 8.94438 21.8493Z" fill="#FF7BAC"/>
<path d="M9.44149 51.0471C10.939 49.6993 10.939 47.5154 9.44149 46.1676C7.63471 44.5415 2.2131 44.5415 2.2131 44.5415C2.2131 44.5415 2.2131 49.421 4.01988 51.0471C5.51744 52.3949 7.94521 52.3949 9.44149 51.0471Z" fill="#18C29C"/>
<path d="M11.5 23.0004C11.5 21.7297 10.3564 20.7004 8.94446 20.7004C3.83335 20.7004 2.55557 26.4504 2.55557 26.4504C2.55557 26.4504 6.38891 25.3004 8.94446 25.3004C10.3564 25.3004 11.5 24.2712 11.5 23.0004Z" fill="#18C29C"/>
<path d="M23 12.65V8.05C23 7.4152 22.4276 6.9 21.7222 6.9H20.4444V3.45C20.4444 2.8152 19.872 2.3 19.1667 2.3H16.6111C15.3551 2.3 14.1182 2.45755 12.9196 2.7508C10.8483 1.0281 8.08833 0 5.11111 0H3.83333C3.128 0 2.55556 0.5152 2.55556 1.15V4.6H1.27778C0.572444 4.6 0 5.1152 0 5.75V14.95C0 17.6479 1.518 20.1066 3.91639 21.5832C2.41117 23.0333 1.587 24.9447 1.30205 26.2246C1.21133 26.6248 1.3685 27.0399 1.70839 27.3125C2.05083 27.5839 2.52617 27.6713 2.95806 27.5413C2.98872 27.5321 5.49189 26.7892 7.66539 26.5363V29.9H5.10983V32.2H7.66539V39.1H5.10983V41.4H7.66539V44.0588C5.33089 43.4183 2.60028 43.393 2.21183 43.393C1.5065 43.393 0.934057 43.9081 0.934057 44.5429C0.934057 45.0915 0.995389 49.9537 3.11522 51.8615C4.10806 52.7551 5.41394 53.2139 6.73006 53.2139C7.04311 53.2139 7.35489 53.1783 7.66539 53.1265V57.5H5.10983V59.8H7.66539V67.85C7.66539 68.4848 8.23783 69 8.94317 69H14.0543C14.7596 69 15.3321 68.4848 15.3321 67.85V64.4H17.8876V62.1H15.3321V55.2H17.8876V52.9H15.3321V51.3889C15.4624 51.3958 15.5927 51.4176 15.7231 51.4176C17.3842 51.4176 18.9993 50.8312 20.2234 49.7283C23.2977 46.9614 22.494 41.262 22.3918 40.6203C22.3113 40.1143 21.8704 39.7164 21.3069 39.6451C21.16 39.6255 18.2071 39.2621 15.3308 39.79V36.8H17.8863V34.5H15.3308V26.5351C17.5043 26.7892 20.0074 27.5322 20.0381 27.5402C20.47 27.6701 20.9453 27.5828 21.2878 27.3113C21.6289 27.0388 21.7848 26.6236 21.6941 26.2234C21.367 24.7491 20.3231 22.4411 18.3476 20.9622C21.2494 19.0245 23 15.9493 23 12.65ZM20.4444 12.65C20.4444 15.3698 18.9022 17.8813 16.4003 19.3637C17.3394 18.078 17.8889 16.5577 17.8889 14.95C17.8889 12.9754 17.2602 11.1343 16.1894 9.5634C17.1542 9.3311 18.1483 9.2 19.1667 9.2H20.4444V12.65ZM17.8889 4.6V6.95865C17.273 7.0081 16.6648 7.09665 16.0655 7.2174C15.7524 6.32845 15.318 5.49585 14.7737 4.73685C15.3781 4.64945 15.9914 4.6 16.6111 4.6H17.8889ZM5.11111 2.3C8.40522 2.3 11.3339 3.9307 12.8877 6.4193C11.0374 5.2739 8.80006 4.6 6.38889 4.6H5.11111V2.3ZM2.55556 6.9H6.38889C11.3211 6.9 15.3333 10.511 15.3333 14.95C15.3333 17.3132 13.7118 19.4258 11.2866 20.2883C10.6362 19.8329 9.82994 19.55 8.94444 19.55C7.89028 19.55 6.96645 19.7627 6.14739 20.1066C3.97772 19.1521 2.55556 17.1614 2.55556 14.95V6.9ZM8.94444 21.85C9.6485 21.85 10.2209 22.3652 10.2222 22.9988C10.2222 23 10.2222 23 10.2222 23.0011C10.2222 23.6348 9.6485 24.15 8.94444 24.15C7.57211 24.15 5.90717 24.4421 4.56806 24.74C5.29767 23.3967 6.63933 21.85 8.94444 21.85ZM4.92456 50.2343C4.13617 49.5247 3.69278 47.4731 3.54711 45.7447C4.82105 45.8321 6.51411 46.046 7.66794 46.5003V50.7426C6.73772 51.0738 5.65928 50.8967 4.92456 50.2343ZM10.2222 66.7V26.2384C10.7001 26.0854 11.1307 25.8531 11.5 25.553C11.8693 25.8531 12.2999 26.0854 12.7778 26.2384V66.7H10.2222ZM19.9627 41.8405C20.0943 43.6425 19.9666 46.7095 18.4179 48.1033C17.5899 48.8485 16.4629 49.1936 15.3333 49.0912V46H17.8889V43.7H15.3333V42.1521C16.9881 41.7599 18.8536 41.7772 19.9627 41.8405ZM14.0556 24.15C13.3515 24.15 12.7791 23.6348 12.7778 23.0011C12.7778 23 12.7778 23 12.7778 22.9988C12.7778 22.3652 13.3515 21.85 14.0556 21.85C16.3607 21.85 17.7023 23.3967 18.4319 24.74C17.0928 24.4421 15.4266 24.15 14.0556 24.15Z" fill="#272A56"/>
</svg>
