<svg width="27" height="35" viewBox="0 0 27 35" fill="none" xmlns="http://www.w3.org/2000/svg">
<path d="M26.0761 10.8679L15.7275 0.894888C15.1559 0.298296 14.3773 2.08616e-06 13.5198 2.08616e-06C12.6624 2.08616e-06 11.8936 0.298296 11.3121 0.894888L0.924106 10.8679C-0.307871 12.0511 -0.307871 13.9801 0.924106 15.1634C2.15608 16.3466 4.14696 16.3466 5.37893 15.1634L10.3463 10.3707V31.9474C10.3463 33.6378 11.7556 35 13.5001 35C15.2446 35 16.654 33.6378 16.654 31.9574V10.3807L21.6213 15.1733C22.8533 16.3565 24.8442 16.3565 26.0761 15.1733C27.3081 13.9801 27.3081 12.0611 26.0761 10.8679Z" fill="black"/>
</svg>
